<svg width="18" height="18" viewBox="0 0 18 18" fill="none" xmlns="http://www.w3.org/2000/svg">
<g clip-path="url(#clip0_328_585)">
<path d="M13.7812 0H4.21875C1.8888 0 0 1.8888 0 4.21875V13.7812C0 16.1112 1.8888 18 4.21875 18H13.7812C16.1112 18 18 16.1112 18 13.7812V4.21875C18 1.8888 16.1112 0 13.7812 0Z" fill="#242938"/>
<mask id="mask0_328_585" style="mask-type:luminance" maskUnits="userSpaceOnUse" x="4" y="1" width="10" height="16">
<path d="M4.28906 1.96875H13.6659V16.0312H4.28906V1.96875Z" fill="white"/>
</mask>
<g mask="url(#mask0_328_585)">
<path d="M6.63384 16.0313C7.92759 16.0313 8.97756 14.9813 8.97756 13.6875V11.3438H6.63384C5.34009 11.3438 4.29004 12.3938 4.29004 13.6875C4.29004 14.9813 5.34009 16.0313 6.63384 16.0313Z" fill="#0ACF83"/>
<path d="M4.29004 8.99998C4.29004 7.70623 5.34009 6.65625 6.63384 6.65625H8.97756V11.3437H6.63384C5.34009 11.3437 4.29004 10.2937 4.29004 8.99998Z" fill="#A259FF"/>
<path d="M4.29004 4.31248C4.29004 3.01873 5.34009 1.96875 6.63384 1.96875H8.97756V6.65627H6.63384C5.34009 6.65627 4.29004 5.60623 4.29004 4.31248Z" fill="#F24E1E"/>
<path d="M8.97754 1.96875H11.3213C12.615 1.96875 13.6651 3.01873 13.6651 4.31248C13.6651 5.60623 12.615 6.65627 11.3213 6.65627H8.97754V1.96875Z" fill="#FF7262"/>
<path d="M13.6651 8.99998C13.6651 10.2937 12.615 11.3437 11.3213 11.3437C10.0275 11.3437 8.97754 10.2937 8.97754 8.99998C8.97754 7.70623 10.0275 6.65625 11.3213 6.65625C12.615 6.65625 13.6651 7.70623 13.6651 8.99998Z" fill="#1ABCFE"/>
</g>
</g>
<defs>
<clipPath id="clip0_328_585">
<rect width="18" height="18" fill="white"/>
</clipPath>
</defs>
</svg>
