<svg width="18" height="18" viewBox="0 0 18 18" fill="none" xmlns="http://www.w3.org/2000/svg">
<g clip-path="url(#clip0_328_520)">
<path d="M13.7812 0H4.21875C1.8888 0 0 1.8888 0 4.21875V13.7812C0 16.1112 1.8888 18 4.21875 18H13.7812C16.1112 18 18 16.1112 18 13.7812V4.21875C18 1.8888 16.1112 0 13.7812 0Z" fill="#D34A47"/>
<path d="M10.8584 16.268L11.0068 13.795L11.4166 13.0955C11.4166 13.0955 10.4839 13.477 8.92245 13.477C7.36088 13.477 6.44231 13.1025 6.44231 13.1025L6.90159 13.8656L7.06409 16.268C7.06409 16.5256 7.91346 16.7344 8.96126 16.7344C10.009 16.7344 10.8584 16.5256 10.8584 16.268ZM10.3902 4.71943L10.7018 3.48811L12.4268 1.67293L11.9722 1.28564L10.1458 3.21924L9.78412 4.69039C9.5119 4.68128 9.23954 4.67675 8.96716 4.67682C7.0437 4.67682 5.48438 4.89598 5.48438 5.16633C5.48438 5.43675 7.0437 5.65592 8.96716 5.65592C10.8906 5.65592 12.45 5.43675 12.45 5.16633C12.45 4.96728 11.6042 4.79593 10.3902 4.71943Z" fill="white"/>
<path d="M10.2091 5.40896C10.2091 5.40896 10.1417 5.42415 9.94319 5.42499C9.74469 5.42576 9.60379 5.42365 9.54761 5.37254C9.53249 5.35883 9.52427 5.33154 9.52434 5.31305C9.52448 5.2779 9.54944 5.25722 9.58122 5.24429L9.61124 5.2914C9.59823 5.2959 9.59071 5.30124 9.59071 5.30693C9.59057 5.33365 9.7937 5.35193 9.94902 5.34997C10.1043 5.348 10.2921 5.3352 10.2922 5.3089C10.2922 5.30096 10.2781 5.29343 10.2533 5.2876L10.2833 5.24077C10.3235 5.25322 10.3587 5.27733 10.3586 5.31917C10.3582 5.39018 10.2678 5.40101 10.2091 5.40896ZM12.4235 1.67649C12.4669 1.62643 12.4011 1.49825 12.2765 1.39032C12.1519 1.28246 12.0157 1.23563 11.9723 1.28569C11.9289 1.33576 11.9947 1.46393 12.1194 1.57186C12.2439 1.67972 12.3801 1.72662 12.4235 1.67649ZM10.7755 10.2275C10.7346 9.83407 11.6359 9.2644 11.4046 9.24619C10.9067 9.2746 10.6588 9.82972 10.4083 10.4111C10.3165 10.6241 10.0024 11.5326 9.79637 11.4208C9.59036 11.309 10.0634 10.5619 10.196 10.1182C10.043 10.2304 9.48194 10.6663 9.33737 10.2581C9.10492 10.4555 8.60823 10.5624 8.66427 10.0439C8.54059 10.2629 8.26307 10.5687 7.92993 10.4416C7.49237 10.2748 8.18341 8.88113 8.35525 8.95144C8.52709 9.02175 8.32059 9.33922 8.26645 9.46247C8.14748 9.73381 8.01009 10.0749 8.10191 10.1447C8.25913 10.2643 8.68712 9.69218 8.69669 9.6796C8.7767 9.57385 9.00473 8.88197 9.18859 8.96143C9.37239 9.04088 8.73009 9.95438 8.97027 10.1356C9.01865 10.1723 9.21686 10.1131 9.33737 9.98265C9.41535 9.89834 9.38856 9.71145 9.64851 9.09143C9.90852 8.47142 10.1403 7.69932 10.3185 7.75817C10.4968 7.81695 10.3499 8.21323 10.2859 8.36096C9.98573 9.05431 9.46668 10.1998 9.71151 10.1131C9.95627 10.0264 10.0837 10.0213 10.3234 9.74084C10.5631 9.46029 10.5521 8.99827 10.7118 9.00811C10.8717 9.01796 10.8449 9.16611 10.8061 9.27889C10.9634 9.09896 11.5514 8.71997 11.6935 9.0953C11.8617 9.53968 10.852 10.1816 11.1038 10.1488C11.3492 10.1169 11.7468 9.86508 11.9166 9.63608L12.3839 5.4349C12.3839 5.4349 11.9136 5.82401 8.92204 5.82401C5.93038 5.82401 5.50879 5.44292 5.50879 5.44292L5.90662 9.27769C6.11784 8.6775 6.6193 7.46349 7.40976 7.5042C7.76927 7.52276 8.24929 8.21513 7.8381 8.23861C7.66408 8.24846 7.64643 7.89303 7.44034 7.84079C7.29163 7.8031 7.08456 7.92404 6.95076 8.05503C6.68392 8.31617 6.10996 9.3466 6.18576 9.8603C6.28244 10.5153 7.08955 9.6327 7.22617 9.37072C7.32236 9.18615 7.38733 8.63933 7.59763 8.6967C7.80808 8.75408 7.57928 9.3184 7.42684 9.81734C7.25549 10.3776 7.16549 10.9686 6.95083 10.9006C6.73602 10.8327 7.08583 10.1094 7.07317 9.98265C6.87138 10.1689 6.49949 10.6403 6.02383 10.407L6.27091 12.7883C6.27091 12.7883 6.92762 13.3072 8.9058 13.3072C10.884 13.3072 11.565 12.7964 11.565 12.7964L11.8719 10.0383C11.6208 10.2827 10.8264 10.7167 10.7755 10.2275Z" fill="white"/>
</g>
<defs>
<clipPath id="clip0_328_520">
<rect width="18" height="18" fill="white"/>
</clipPath>
</defs>
</svg>
