<svg width="18" height="18" viewBox="0 0 18 18" fill="none" xmlns="http://www.w3.org/2000/svg">
<g clip-path="url(#clip0_328_516)">
<path d="M13.7812 0H4.21875C1.8888 0 0 1.8888 0 4.21875V13.7812C0 16.1112 1.8888 18 4.21875 18H13.7812C16.1112 18 18 16.1112 18 13.7812V4.21875C18 1.8888 16.1112 0 13.7812 0Z" fill="#F0DB4F"/>
<path d="M4.73298 15.0421L6.1104 14.2085C6.37618 14.6796 6.61792 15.0783 7.19779 15.0783C7.75361 15.0783 8.10404 14.8609 8.10404 14.0152V8.26374H9.79562V14.0391C9.79562 15.791 8.76864 16.5885 7.27028 16.5885C5.91711 16.5885 5.13165 15.8877 4.73291 15.0419M10.7144 14.8608L12.0917 14.0634C12.4543 14.6555 12.9255 15.0905 13.7591 15.0905C14.4601 15.0905 14.907 14.74 14.907 14.2567C14.907 13.6767 14.4478 13.4713 13.6746 13.1331L13.2518 12.9518C12.0313 12.4323 11.2218 11.7798 11.2218 10.4024C11.2218 9.13365 12.1884 8.16699 13.6988 8.16699C14.7742 8.16699 15.5475 8.54162 16.1032 9.5203L14.7862 10.3661C14.4962 9.84655 14.1821 9.64116 13.6988 9.64116C13.2034 9.64116 12.8892 9.95532 12.8892 10.3661C12.8892 10.8735 13.2034 11.079 13.9283 11.3932L14.3512 11.5744C15.789 12.1907 16.5986 12.8189 16.5986 14.2325C16.5986 15.755 15.4024 16.5887 13.7954 16.5887C12.2247 16.5887 11.2097 15.8396 10.7144 14.8608Z" fill="#323330"/>
</g>
<defs>
<clipPath id="clip0_328_516">
<rect width="18" height="18" fill="white"/>
</clipPath>
</defs>
</svg>
