<svg width="18" height="18" viewBox="0 0 18 18" fill="none" xmlns="http://www.w3.org/2000/svg">
<g clip-path="url(#clip0_328_564)">
<path d="M13.7812 0H4.21875C1.8888 0 0 1.8888 0 4.21875V13.7812C0 16.1112 1.8888 18 4.21875 18H13.7812C16.1112 18 18 16.1112 18 13.7812V4.21875C18 1.8888 16.1112 0 13.7812 0Z" fill="#CD6799"/>
<mask id="mask0_328_564" style="mask-type:luminance" maskUnits="userSpaceOnUse" x="1" y="3" width="16" height="12">
<path d="M1.96875 3.72656H16.0312V14.267H1.96875V3.72656Z" fill="white"/>
</mask>
<g mask="url(#mask0_328_564)">
<path d="M14.0702 9.7851C13.5798 9.78763 13.1537 9.90576 12.7969 10.0803C12.666 9.82103 12.5351 9.58998 12.5119 9.42053C12.4863 9.22288 12.4555 9.10223 12.4863 8.86605C12.5171 8.62987 12.6557 8.29363 12.6531 8.26797C12.6506 8.24223 12.6223 8.12165 12.3399 8.11905C12.0576 8.11651 11.8137 8.17297 11.7855 8.24744C11.7572 8.32183 11.7033 8.49128 11.6674 8.66587C11.6186 8.92258 11.1026 9.83903 10.8074 10.3191C10.7124 10.1317 10.6303 9.96735 10.6123 9.83643C10.5866 9.63878 10.5558 9.51812 10.5866 9.28194C10.6174 9.04576 10.7561 8.70946 10.7535 8.6838C10.7509 8.65813 10.7227 8.53748 10.4403 8.53494C10.1579 8.53234 9.91401 8.5888 9.88582 8.66326C9.85755 8.73773 9.82675 8.91231 9.76769 9.08169C9.7087 9.25115 9.02329 10.7811 8.84357 11.1764C8.77096 11.3364 8.6948 11.4948 8.61513 11.6513C8.61513 11.6513 8.61253 11.6591 8.60486 11.6719C8.57981 11.721 8.55412 11.7697 8.5278 11.8182V11.8208C8.48934 11.8901 8.44821 11.9542 8.42768 11.9542C8.41228 11.9542 8.38408 11.7695 8.43281 11.5179C8.53554 10.9865 8.77938 10.1599 8.77685 10.1317C8.77685 10.1163 8.82304 9.97248 8.61766 9.89802C8.41741 9.82356 8.34555 9.94682 8.32755 9.94682C8.30962 9.94682 8.29675 9.99048 8.29675 9.99048C8.29675 9.99048 8.52014 9.06116 7.87066 9.06116C7.46503 9.06116 6.90541 9.50526 6.62824 9.90576C6.31305 10.0773 5.99812 10.2492 5.68345 10.4217C5.53207 10.5064 5.37548 10.5912 5.22909 10.6708C5.21882 10.6605 5.20856 10.6476 5.19829 10.6374C4.41276 9.7979 2.95982 9.20495 3.02142 8.07798C3.04455 7.66722 3.18574 6.58905 5.81184 5.27983C7.97332 4.21452 9.6933 4.50969 9.99107 5.1643C10.4172 6.09876 9.06949 7.83407 6.83615 8.08565C5.98382 8.18064 5.5372 7.85207 5.42428 7.72888C5.30615 7.60049 5.28815 7.59283 5.24449 7.61849C5.17263 7.65695 5.21882 7.77248 5.24449 7.8392C5.31129 8.01379 5.58593 8.32183 6.05055 8.47328C6.46132 8.6068 7.45989 8.68126 8.66899 8.21404C10.0219 7.69035 11.0795 6.23474 10.7689 5.01545C10.4583 3.77809 8.40461 3.36993 6.46132 4.06047C5.30608 4.47123 4.05339 5.11811 3.15234 5.9601C2.08183 6.96135 1.91245 7.83154 1.98178 8.19604C2.23075 9.48986 4.01486 10.3319 4.72854 10.9557C4.69261 10.9762 4.65921 10.9942 4.63101 11.0096C4.27418 11.1867 2.91363 11.8978 2.57472 12.65C2.18969 13.5022 2.63639 14.1132 2.93156 14.1953C3.84801 14.4495 4.79013 13.9925 5.29589 13.2378C5.80157 12.4831 5.73998 11.5025 5.50633 11.0533C5.50383 11.0476 5.50036 11.0424 5.49607 11.0379C5.58853 10.9839 5.68345 10.9275 5.77591 10.8735C5.94579 10.7731 6.11782 10.6764 6.29186 10.5834C6.20461 10.8222 6.14041 11.1071 6.10961 11.5179C6.07115 12.0005 6.2688 12.6268 6.52804 12.8733C6.64357 12.9811 6.77962 12.9837 6.86695 12.9837C7.16986 12.9837 7.30591 12.7321 7.45736 12.4343C7.64214 12.0698 7.80907 11.6462 7.80907 11.6462C7.80907 11.6462 7.60108 12.7912 8.16583 12.7912C8.37122 12.7912 8.57913 12.5242 8.67159 12.3881V12.3907C8.67159 12.3907 8.67672 12.383 8.68699 12.365C8.70752 12.3316 8.72032 12.3111 8.72032 12.3111V12.3059C8.80251 12.1622 8.98729 11.8362 9.262 11.2945C9.61624 10.5963 9.95768 9.72351 9.95768 9.72351C9.95768 9.72351 9.98847 9.93655 10.0937 10.2908C10.1553 10.4988 10.2837 10.7272 10.3864 10.948C10.3042 11.0635 10.2529 11.1276 10.2529 11.1276L10.2554 11.1302C10.1887 11.2175 10.1169 11.3125 10.0373 11.4049C9.75743 11.7387 9.42372 12.1212 9.37753 12.2316C9.3236 12.3625 9.33646 12.4574 9.43912 12.5345C9.51358 12.5909 9.64703 12.5986 9.78309 12.5909C10.0347 12.5729 10.2119 12.5113 10.2991 12.4728C10.4352 12.4241 10.5944 12.3496 10.7432 12.2392C11.0179 12.0364 11.1848 11.7463 11.1694 11.3638C11.1616 11.1533 11.0923 10.9429 11.0077 10.7451C11.0333 10.7092 11.0564 10.6733 11.082 10.6374C11.5159 10.0033 11.8522 9.30761 11.8522 9.30761C11.8522 9.30761 11.883 9.52065 11.9882 9.87496C12.0396 10.0546 12.1448 10.2497 12.2373 10.4397C11.8291 10.7709 11.5775 11.1559 11.4877 11.4075C11.326 11.8747 11.4517 12.0852 11.6905 12.134C11.7983 12.1571 11.9523 12.1058 12.0653 12.057C12.209 12.0108 12.3785 11.9312 12.5402 11.8131C12.8148 11.6103 13.0793 11.3279 13.0639 10.9454C13.0561 10.7709 13.0099 10.5988 12.9457 10.432C13.2923 10.2883 13.739 10.2087 14.3089 10.2754C15.5309 10.4192 15.7722 11.1816 15.7259 11.5025C15.6797 11.8233 15.423 11.9979 15.3383 12.0518C15.2536 12.1058 15.2253 12.1237 15.2331 12.1622C15.2433 12.2187 15.2844 12.2161 15.3563 12.2058C15.4564 12.1879 15.998 11.9466 16.0211 11.3562C16.0597 10.6014 15.3409 9.77737 14.0702 9.7851ZM4.64381 12.9632C4.23825 13.4046 3.6735 13.5716 3.42958 13.4304C3.16774 13.2789 3.27039 12.6269 3.76849 12.1596C4.07132 11.8747 4.46156 11.6103 4.7208 11.4486C4.77986 11.4126 4.86712 11.3613 4.97238 11.2971C4.99038 11.2868 5.00064 11.2817 5.00064 11.2817L5.06224 11.2432C5.24449 11.9106 5.0699 12.4985 4.64381 12.9632ZM7.59595 10.9557C7.45476 11.2997 7.15959 12.1802 6.97987 12.1314C6.82589 12.0903 6.73089 11.4229 6.94907 10.7631C7.05947 10.432 7.29304 10.0367 7.4291 9.88262C7.64988 9.63618 7.89372 9.55405 7.95279 9.65418C8.02725 9.7851 7.68328 10.74 7.59595 10.9557ZM10.0321 12.1212C9.97307 12.152 9.91661 12.1725 9.89095 12.1571C9.87295 12.1468 9.91661 12.1058 9.91661 12.1058C9.91661 12.1058 10.2221 11.7771 10.3428 11.6283C10.412 11.5409 10.4942 11.4383 10.5815 11.3228V11.3562C10.5815 11.7489 10.2016 12.0133 10.0321 12.1212ZM11.9112 11.6924C11.8676 11.6616 11.8753 11.5589 12.0216 11.238C12.0781 11.1122 12.2116 10.9018 12.4401 10.699C12.4657 10.7811 12.4837 10.8607 12.4811 10.9351C12.4786 11.4306 12.1243 11.6154 11.9112 11.6924Z" fill="white"/>
</g>
</g>
<defs>
<clipPath id="clip0_328_564">
<rect width="18" height="18" fill="white"/>
</clipPath>
</defs>
</svg>
