<svg width="18" height="18" viewBox="0 0 18 18" fill="none" xmlns="http://www.w3.org/2000/svg">
<g clip-path="url(#clip0_328_559)">
<path d="M13.7812 0H4.21875C1.8888 0 0 1.8888 0 4.21875V13.7812C0 16.1112 1.8888 18 4.21875 18H13.7812C16.1112 18 18 16.1112 18 13.7812V4.21875C18 1.8888 16.1112 0 13.7812 0Z" fill="#242938"/>
<path d="M9 16.0312C12.8832 16.0312 16.0312 12.8832 16.0312 9C16.0312 5.11678 12.8832 1.96875 9 1.96875C5.11678 1.96875 1.96875 5.11678 1.96875 9C1.96875 12.8832 5.11678 16.0312 9 16.0312Z" fill="white"/>
<path d="M12.0741 4.57047C11.3598 4.59536 10.7362 4.98904 10.2723 5.53368C9.75834 6.13077 9.41648 6.83896 9.17018 7.56191C8.72946 7.20079 8.38957 6.73321 7.68264 6.52938C7.13625 6.37258 6.56236 6.43727 6.03459 6.83052C5.78463 7.01727 5.61236 7.29958 5.53045 7.56494C5.31839 8.25449 5.75341 8.86825 5.95099 9.08861L6.38299 9.55155C6.472 9.64239 6.68653 9.87913 6.58169 10.2186C6.46835 10.5878 6.02341 10.8267 5.56687 10.686C5.36297 10.6237 5.07011 10.4719 5.13579 10.258C5.16286 10.1705 5.22543 10.1051 5.25904 10.0295C5.28977 9.96449 5.30454 9.91577 5.31389 9.88715C5.39728 9.61483 5.2833 9.26059 4.99172 9.17073C4.71961 9.08734 4.44117 9.15337 4.33331 9.50374C4.21089 9.9017 4.4013 10.624 5.42154 10.9385C6.61678 11.3058 7.62787 10.655 7.77124 9.80615C7.86159 9.27452 7.62154 8.87957 7.18174 8.37149L6.82343 7.97528C6.60637 7.75837 6.53184 7.38881 6.75649 7.10481C6.94605 6.86519 7.21598 6.76288 7.65818 6.88312C8.30357 7.05841 8.59129 7.50623 9.07132 7.86735C8.87311 8.51753 8.74359 9.1701 8.62638 9.75524L8.55487 10.1915C8.21168 11.9915 7.94976 12.9798 7.26907 13.5472C7.13196 13.6446 6.93586 13.7907 6.64033 13.8009C6.48543 13.8057 6.43544 13.6991 6.43326 13.6527C6.42961 13.544 6.52115 13.4941 6.58211 13.4452C6.6731 13.3955 6.81063 13.3132 6.80135 13.0495C6.79136 12.738 6.53332 12.4678 6.16031 12.4802C5.88082 12.4898 5.45486 12.7527 5.4709 13.2342C5.48756 13.7313 5.95099 14.104 6.64968 14.0804C7.02318 14.0676 7.8573 13.9155 8.67925 12.9384C9.63593 11.8184 9.90347 10.5343 10.1048 9.59451L10.3294 8.35377C10.4542 8.36868 10.5877 8.37866 10.7328 8.38211C11.9244 8.40728 12.5204 7.79001 12.5292 7.34113C12.5351 7.06945 12.351 6.80212 12.0931 6.80817C11.9086 6.81337 11.6767 6.9362 11.6211 7.19144C11.5667 7.44189 12.0002 7.66788 11.6613 7.88732C11.4207 8.04306 10.9891 8.15289 10.3814 8.06366L10.4919 7.45293C10.7174 6.29474 10.9956 4.87007 12.0509 4.83541C12.1278 4.83154 12.4092 4.83892 12.4157 5.02497C12.4177 5.08713 12.4023 5.10302 12.3295 5.24533C12.2554 5.35621 12.2274 5.45064 12.2309 5.5592C12.2411 5.85494 12.466 6.04928 12.7911 6.03761C13.2266 6.02355 13.3519 5.59956 13.3447 5.38181C13.3271 4.87028 12.7879 4.54713 12.0741 4.57047Z" fill="#242938"/>
</g>
<defs>
<clipPath id="clip0_328_559">
<rect width="18" height="18" fill="white"/>
</clipPath>
</defs>
</svg>
