<svg width="18" height="18" viewBox="0 0 18 18" fill="none" xmlns="http://www.w3.org/2000/svg">
<g clip-path="url(#clip0_328_572)">
<path d="M13.7812 0H4.21875C1.8888 0 0 1.8888 0 4.21875V13.7812C0 16.1112 1.8888 18 4.21875 18H13.7812C16.1112 18 18 16.1112 18 13.7812V4.21875C18 1.8888 16.1112 0 13.7812 0Z" fill="#242938"/>
<path d="M2.37077 7.04589C2.37077 7.04589 2.03784 6.80592 2.43736 6.4855L3.36802 5.65328C3.36802 5.65328 3.63436 5.37309 3.91589 5.61721L12.5045 12.1196V15.2377C12.5045 15.2377 12.5003 15.7274 11.872 15.6732L2.37077 7.04589Z" fill="#2489CA"/>
<path d="M4.58437 9.05566L2.37066 11.0682C2.37066 11.0682 2.14313 11.2375 2.37066 11.5399L3.39841 12.4747C3.39841 12.4747 3.64254 12.7369 4.00317 12.4386L6.35006 10.6591L4.58437 9.05566Z" fill="#1070B3"/>
<path d="M8.47086 9.07239L12.5308 5.97231L12.5044 2.87089C12.5044 2.87089 12.331 2.194 11.7526 2.54633L6.3501 7.46335L8.47086 9.07239Z" fill="#0877B9"/>
<path d="M11.8719 15.6775C12.1078 15.9188 12.3935 15.8398 12.3935 15.8398L15.5574 14.2807C15.9624 14.0047 15.9055 13.6621 15.9055 13.6621V4.35225C15.9055 3.94303 15.4866 3.80163 15.4866 3.80163L12.7444 2.47975C12.1452 2.10942 11.7527 2.54634 11.7527 2.54634C11.7527 2.54634 12.2575 2.18296 12.5045 2.8709V15.1809C12.5048 15.2648 12.4864 15.3478 12.4504 15.4237C12.3783 15.5693 12.2215 15.7052 11.8456 15.6483L11.8719 15.6775Z" fill="#3C99D4"/>
</g>
<defs>
<clipPath id="clip0_328_572">
<rect width="18" height="18" fill="white"/>
</clipPath>
</defs>
</svg>
