<svg width="18" height="18" viewBox="0 0 18 18" fill="none" xmlns="http://www.w3.org/2000/svg">
<g clip-path="url(#clip0_328_579)">
<path d="M13.7812 0H4.21875C1.8888 0 0 1.8888 0 4.21875V13.7812C0 16.1112 1.8888 18 4.21875 18H13.7812C16.1112 18 18 16.1112 18 13.7812V4.21875C18 1.8888 16.1112 0 13.7812 0Z" fill="#242938"/>
<path d="M9.01561 1.26562L15.8515 5.13281V12.8672L9.01561 16.7344L2.17969 12.8672V5.13281L9.01561 1.26562Z" fill="white"/>
<path d="M14.6307 12.6004L9.24107 15.649V13.2745L12.5991 11.4274L14.6307 12.6004ZM14.9993 12.2665V5.89082L13.027 7.02904V11.127L14.9993 12.2665ZM3.37841 12.6004L8.76801 15.649V13.2745L5.40995 11.4274L3.37841 12.6004ZM3.00977 12.2665V5.89082L4.98203 7.02904V11.127L3.00977 12.2665ZM3.24046 5.47829L8.76801 2.35107V4.64685L5.22693 6.59465L5.19986 6.61011L3.24046 5.47829ZM14.7685 5.47829L9.24107 2.35107V4.64685L12.7821 6.59465L12.8092 6.61011L14.7685 5.47829Z" fill="#8ED6FB"/>
<path d="M8.76799 12.7344L5.45508 10.9129V7.3036L8.76799 9.21659V12.7344ZM9.24105 12.7344L12.554 10.9129V7.3036L9.24105 9.21659V12.7344ZM5.67938 6.88594L9.00516 5.05676L12.3309 6.88594L9.00516 8.80667L5.67938 6.88594Z" fill="#1C78C0"/>
</g>
<defs>
<clipPath id="clip0_328_579">
<rect width="18" height="18" fill="white"/>
</clipPath>
</defs>
</svg>
