<svg xmlns="http://www.w3.org/2000/svg" version="1.1" xmlns:xlink="http://www.w3.org/1999/xlink" width="512" height="512" x="0" y="0" viewBox="0 0 88.968 88.968" style="enable-background:new 0 0 512 512" xml:space="preserve"><g><path d="M74.357 44.899c-1.5-3.2-5.7-5.2-9.1-4.5-.3-1.3-1-2.4-2.2-3.4-1.7-1.4-4.2-1.7-6.5-1.1.3-3.6-.7-7-4.9-8.1-4.2-1-7.5 1.7-9.6 5.3 0-2.6 0-5.1.1-7.7 0-4.7.4-9.5.2-14.2-.2-3.5-1-7.8-4-10-2.9-2.1-6.6-1.3-8.8 1.3-2.4 2.7-2.7 6.6-3 10-.4 3.9-.6 7.9-.9 11.8-.3 5.9-.4 12.3-1.7 18.2-9 6.5-12.6 20.5-8.4 30.5 4.4 10.5 15.8 16.7 26.9 15.9 13.9-1.1 26.8-9 30-23.1.4-1.7-.7-2.9-1.9-3.3 1.4-2.9 2.6-5.9 3.7-8.9.8-3.1 1.5-5.8.1-8.7zm-19.4-2c0-.1-.1-.2-.2-.4.3-.7.5-1.4.8-2.1.2-.1.4-.3.6-.4 2.3-1.3 5.1-.1 4.7 2.8-.4 3.4-2.9 7-4.3 10.1-.7 1.5-1.5 4.3-2.8 6.2-.3.3-.6.7-.9 1.1-.5.6-1.1 1-1.8 1.1-4.4 1-1.8-5.7-.9-7.5v-.1c4.3-1.1 6.3-7 4.8-10.8zm-13.1-4.9c1.7-2.1 3.6-4.4 5.7-5.6 2.8-1.5 4.8.2 4.4 2.9-.2 1.3-.6 2.6-1.2 3.8-2.8-1-6.4-.9-9-1 .1 0 .1 0 .1-.1zm-12.6-5.2c.7-6.5.8-13.1 1.5-19.6.2-2.1.7-10.4 4.6-8.8 3.3 1.4 2.3 8.7 2.2 11.3-.4 7.5-.2 15-.5 22.5-3.1.2-6.1.7-8.9 1.8.6-2.3.9-4.8 1.1-7.2zm18.6 49.5c-9.1 2.3-18.3 1.1-24.7-6.1-6.9-7.7-5.7-18.4 0-26.5 5.4-7.6 16.4-8 24.8-6.6 1.6.3 2.8.8 2.9 2.7.1 1.3-.6 2.9-1.8 3.4-2 .7-5.2-.5-7.3-.3-4.2.3-8.1 1.8-11.4 4.2-.6.1-1.2.4-1.6.7-1.6 1.2-1.5 3.6.6 4.3 2.8 1 6-.9 8.6 1.4 1.4 1.3 1.8 3 2.3 4.7.3 1 .6 2.2 1.8 2.2h.1c.8 0 1.3-.5 1.6-1.2.2-.6.3-1.2.4-1.8.7 1.3 1.9 2.4 3.9 3.1 1.7.6 3.3.5 4.6.1.5 1.7 1.4 3.2 2.6 4.1 3.7 2.6 6.9 2 9.5-.1-3.7 6-9.7 9.9-16.9 11.7zm-3.4-29c-.8 1.9-1.3 4-1.4 6-.8-1.8-2.1-3.4-3.6-4.4-.5-.3-1.1-.6-1.9-.9.5-.2 1.1-.3 1.6-.4 1.8-.4 3.6-.4 5.3-.3zm26.6-4.1c-.5 3.4-2.7 7.3-4.3 10.4-1.1 2.2-4.7 9.8-7.9 7.7-2.2-1.4-1.4-3.7-.8-5.8 1.3-2 2.2-4.3 3-6.2 1.3-3 3.8-7.5 4.3-11.5.7-.1 1.4-.2 2.1 0 2.5.6 3.9 3 3.6 5.4z" fill="#000000" opacity="1" data-original="#000000"></path></g></svg>